# xmcd
# 
# Track frame offsets:
#     150
#     10796
#     24932
#     36500
#     47175
#     59652
#     72542
#     85292
#     96210
#     108054
#     118592
#     129143
# 
# Disc length: 1896
# 
# Revision: 0
# Processed by: cddbd v1.5.2PL0 Copyright (c) Steve Scherf et al.
# Submitted via: fre:ac v1.0.17
# 
DISCID=9c07660c
DTITLE=Jimmy Reed - The Best of Jimmy reed
DYEAR=0
DGENRE=Blues
TTITLE0=Baby, What do you want me to do?
TTITLE1=You don't have to go
TTITLE2=Hush-Hush
TTITLE3=Found Love
TTITLE4=Honest I Do
TTITLE5=You got me dizzy
TTITLE6=Big Boss Man
TTITLE7=Take out some insurance
TTITLE8=Boogie in the dark
TTITLE9=Going to New York
TTITLE10=Ain't that lovin', Baby
TTITLE11=The Sun is Shining
EXTD=
EXTT0=
EXTT1=
EXTT2=
EXTT3=
EXTT4=
EXTT5=
EXTT6=
EXTT7=
EXTT8=
EXTT9=
EXTT10=
EXTT11=
PLAYORDER=
